<svg xmlns="http://www.w3.org/2000/svg" aria-hidden="true" overflow="hidden" style="position:absolute;width:0;height:0">
  <defs>
    <symbol id="icon-arrow" viewBox="0 0 43 32">
      <path d="M5.809 16 17.698 4.11a2.379 2.379 0 0 0 0-3.397 2.38 2.38 0 0 0-3.397 0L.712 14.302a2.379 2.379 0 0 0 0 3.397l13.589 13.589a2.38 2.38 0 0 0 3.397 0 2.379 2.379 0 0 0 0-3.397L5.809 16.001z"/>
      <path d="M42.674 13.598v4.804H2.412v-4.804h40.262zM5.809 16 17.698 4.11a2.379 2.379 0 0 0 0-3.397 2.38 2.38 0 0 0-3.397 0L.712 14.302a2.379 2.379 0 0 0 0 3.397l13.589 13.589a2.38 2.38 0 0 0 3.397 0 2.379 2.379 0 0 0 0-3.397L5.809 16.001z"/>
    </symbol>
    <symbol id="icon-logo-facebook" viewBox="0 0 32 32">
      <path d="M0 16C0 7.163 7.164 0 16 0s16 7.163 16 16-7.164 16-16 16S0 24.837 0 16zm17.668 9.407v-8.704h2.403l.318-3h-2.721l.004-1.501c0-.783.074-1.202 1.198-1.202h1.503V8H17.97c-2.887 0-3.903 1.455-3.903 3.902v1.801h-1.799v3h1.799v8.704h3.602z"/>
    </symbol>
    <symbol id="icon-logo-instagram" viewBox="0 0 32 32">
      <path d="M0 16C0 7.163 7.164 0 16 0s16 7.163 16 16-7.164 16-16 16S0 24.837 0 16zm16.001-8.533c-2.318 0-2.608.01-3.519.052-.909.041-1.529.186-2.071.396-.562.218-1.038.509-1.512.983s-.766.95-.985 1.512c-.211.543-.355 1.163-.396 2.071-.041.91-.051 1.201-.051 3.519s.01 2.607.051 3.518c.042.908.186 1.528.396 2.071.218.561.51 1.037.984 1.512s.95.767 1.511.985c.543.211 1.163.355 2.071.396.91.041 1.201.051 3.518.051s2.608-.01 3.518-.051c.909-.042 1.529-.186 2.072-.396.561-.219 1.037-.511 1.511-.985s.766-.95.985-1.512c.209-.543.354-1.163.396-2.071.041-.91.051-1.2.051-3.518s-.011-2.608-.051-3.519c-.043-.908-.187-1.528-.396-2.071-.219-.562-.51-1.037-.985-1.512s-.95-.766-1.511-.983c-.544-.211-1.165-.355-2.073-.396-.911-.042-1.2-.052-3.519-.052h.003z"/>
      <path d="M15.235 9.005h.766c2.278 0 2.548.009 3.448.049.832.038 1.284.178 1.584.294.398.155.682.34.98.639s.483.583.639.981c.117.3.256.752.294 1.584.041.899.05 1.17.05 3.447s-.009 2.547-.05 3.447c-.038.832-.177 1.283-.294 1.584-.155.397-.34.682-.639.98s-.582.484-.98.639c-.301.117-.752.256-1.584.294-.899.041-1.17.05-3.448.05s-2.549-.009-3.448-.05c-.832-.038-1.284-.178-1.584-.294-.399-.155-.683-.34-.981-.639s-.483-.582-.639-.98c-.117-.301-.256-.752-.294-1.584-.041-.899-.049-1.17-.049-3.448 0-2.279.008-2.548.049-3.447.038-.832.177-1.284.294-1.585.155-.398.34-.683.639-.981s.583-.483.981-.639c.301-.117.752-.256 1.584-.294.787-.035 1.092-.046 2.683-.048v.002zm5.321 1.417a1.023 1.023 0 1 0-.002 2.046 1.023 1.023 0 0 0 .002-2.046zM16 11.618a4.383 4.383 0 0 0 0 8.764 4.382 4.382 0 0 0 0-8.764z"/>
      <path d="M16 13.155a2.845 2.845 0 1 1 0 5.69 2.845 2.845 0 0 1 0-5.69z"/>
    </symbol>
  </defs>
</svg>
